<svg width="20" height="15" viewBox="0 0 20 15" fill="none" xmlns="http://www.w3.org/2000/svg">
<path fill-rule="evenodd" clip-rule="evenodd" d="M12.3927 4.60519C9.66682 7.13806 7.37369 9.27065 7.29681 9.34428L7.15706 9.47812L5.01291 7.18479C3.83361 5.9235 2.85144 4.89725 2.83029 4.90434C2.80915 4.91139 2.16366 5.50598 1.39592 6.22559L0 7.534L0.122869 7.67602C0.19044 7.75415 1.75722 9.43398 3.60456 11.409L6.96338 15L7.18043 14.789C7.29982 14.673 10.1673 12.0087 13.5527 8.86845C16.938 5.72814 19.7736 3.09511 19.8539 3.01729L20 2.87578L18.9009 1.68127C18.2964 1.02429 17.6999 0.377254 17.5753 0.243382L17.3488 0L12.3927 4.60519Z" fill="#181818"/>
</svg>
